<svg width="1440" height="1024" viewBox="0 0 1440 1024" fill="none" xmlns="http://www.w3.org/2000/svg">
<path d="M252.807 163.075C247.69 163.664 245.592 164.057 243.113 164.874C237.996 166.641 235.898 168.211 227.38 176.782C219.815 184.404 148.078 248.294 140.45 254.247C137.653 256.406 134.57 258.893 133.584 259.776C129.134 263.669 126.751 268.641 125.67 276.231C125.352 278.553 124.812 291.737 125.066 291.802C125.13 291.802 137.239 292.228 151.987 292.718C166.703 293.209 178.877 293.765 179.036 293.929C179.322 294.256 179.83 305.084 180.339 321.866C180.847 338.681 181.292 377.348 181.292 406.594C181.261 432.699 181.197 445.915 180.307 552.168C179.926 600.126 180.021 609.122 181.133 621.913C184.375 658.716 194.674 683.349 216.096 705.463C237.328 727.381 257.543 737.195 287.293 740.107C296.351 740.99 305.95 741.252 328.549 741.252C340.722 741.252 350.703 741.219 350.703 741.154C350.703 741.121 351.084 738.275 351.529 734.873C351.942 731.438 352.387 726.531 352.482 723.914C352.673 718.745 352.546 718.156 350.925 716.913C350.099 716.259 349.463 716.226 342.025 716.03C334.048 715.801 328.867 715.212 323.845 713.903C305.473 709.16 292.061 697.252 282.525 677.297C278.584 669.021 276.264 662.576 273.785 652.762C269.875 637.354 267.618 620.179 266.442 596.659C265.902 586.223 265.997 555.407 266.601 537.284C266.887 528.811 267.269 514.319 267.428 505.061C267.714 487.559 268 482.325 269.017 472.675C271.178 452.72 275.215 437.312 282.048 423.114C291.107 404.173 302.994 391.742 323.304 379.965C325.943 378.427 330.329 375.876 332.999 374.338C339.673 370.478 342.82 368.254 345.681 365.44C348.446 362.725 350.321 359.879 351.402 356.804L352.133 354.743L352.037 333.806C351.974 322.291 351.815 308.453 351.72 303.056L351.497 293.242L309.828 293.144L268.127 293.078L267.936 287.746C267.841 284.834 267.682 255.654 267.555 222.908C267.46 190.162 267.301 163.304 267.237 163.206C267.046 163.042 254.301 162.912 252.807 163.075Z" fill="url(#paint0_linear)"/>
<path d="M692.066 291.999C683.738 292.522 673.853 294.092 665.621 296.219C647.091 300.995 628.974 309.762 608.155 323.992C602.688 327.722 585.779 339.989 584.571 341.069C584.094 341.494 584.126 341.756 584.857 344.536C589.18 360.991 596.268 375.745 603.546 383.662L606.248 386.54L611.397 383.891C660.981 358.243 709.833 360.435 743.874 389.844C747.879 393.279 754.522 400.411 757.732 404.664C772.766 424.521 781.538 449.71 783.922 479.545C784.081 481.802 784.367 487.527 784.558 492.303C784.748 497.079 785.257 508.463 785.67 517.656C786.083 526.815 786.624 538.396 786.846 543.336C787.387 555.211 787.387 596.56 786.846 603.692C786.56 607.585 786.465 626.068 786.465 675.858V742.789L788.626 742.986C791.423 743.28 840.879 743.28 857.598 742.986L870.693 742.789V604.019V465.249L869.898 459.001C864.686 418.534 854.356 386.835 838.114 361.449C827.848 345.42 814.562 331.68 798.956 320.95C778.296 306.72 751.407 297.004 722.42 293.242C712.312 291.933 700.647 291.475 692.066 291.999Z" fill="url(#paint1_linear)"/>
<path d="M408.645 293.961L406.961 294.092V296.121C406.961 297.233 406.738 312.019 406.452 328.998L405.944 359.846L407.088 361.384C409.726 364.884 413.222 367.403 425.014 374.338C437.728 381.83 443.163 385.428 449.234 390.401C463.06 401.719 474.248 417.356 479.397 432.535C484.864 448.729 488.996 474.31 491.157 505.715C492.619 526.456 492.587 524.395 492.492 636.274L492.397 742.789L518.651 743.051C533.081 743.182 552.278 743.182 561.273 743.051L577.642 742.789V602.645C577.642 480.199 577.579 461.912 577.165 457.692C571.031 395.962 541.249 344.144 495.702 316.01C476.091 303.874 454.478 296.775 430.004 294.387C426.222 294.027 411.347 293.7 408.645 293.961Z" fill="url(#paint2_linear)"/>
<path d="M965.803 510.236C965.803 514.566 964.948 518.61 963.239 522.37C961.644 526.13 959.423 529.434 956.574 532.282C953.726 535.017 950.365 537.238 946.491 538.947C942.731 540.542 938.687 541.34 934.357 541.34C930.028 541.34 925.926 540.542 922.053 538.947C918.293 537.238 914.989 535.017 912.141 532.282C909.406 529.434 907.185 526.13 905.476 522.37C903.881 518.61 903.083 514.566 903.083 510.236C903.083 506.021 903.881 502.033 905.476 498.273C907.185 494.4 909.406 491.096 912.141 488.361C914.989 485.513 918.293 483.291 922.053 481.696C925.926 479.987 930.028 479.133 934.357 479.133C938.687 479.133 942.731 479.987 946.491 481.696C950.365 483.291 953.726 485.513 956.574 488.361C959.423 491.096 961.644 494.4 963.239 498.273C964.948 502.033 965.803 506.021 965.803 510.236ZM957.771 743H910.773V559.968H957.771V743ZM1040.14 743H993.488V559.968H1004.77L1020.15 577.741C1027.67 570.905 1036.16 565.664 1045.61 562.019C1055.18 558.259 1065.15 556.379 1075.52 556.379C1086.68 556.379 1097.22 558.544 1107.14 562.873C1117.05 567.089 1125.71 572.956 1133.11 580.476C1140.52 587.881 1146.33 596.597 1150.54 606.623C1154.87 616.535 1157.04 627.131 1157.04 638.41V743H1110.38V638.41C1110.38 633.625 1109.47 629.125 1107.65 624.909C1105.83 620.58 1103.32 616.82 1100.13 613.63C1096.94 610.44 1093.24 607.933 1089.02 606.11C1084.81 604.287 1080.3 603.376 1075.52 603.376C1070.62 603.376 1066.01 604.287 1061.68 606.11C1057.35 607.933 1053.59 610.44 1050.4 613.63C1047.21 616.82 1044.7 620.58 1042.88 624.909C1041.06 629.125 1040.14 633.625 1040.14 638.41V743ZM1367.24 743H1355.96L1337.85 717.878C1333.41 721.866 1328.68 725.625 1323.66 729.157C1318.76 732.575 1313.58 735.594 1308.11 738.215C1302.64 740.721 1297 742.715 1291.19 744.196C1285.5 745.677 1279.69 746.418 1273.76 746.418C1260.89 746.418 1248.75 744.025 1237.36 739.24C1226.08 734.341 1216.17 727.619 1207.62 719.074C1199.19 710.415 1192.53 700.218 1187.63 688.483C1182.73 676.634 1180.28 663.76 1180.28 649.86C1180.28 636.075 1182.73 623.257 1187.63 611.408C1192.53 599.559 1199.19 589.305 1207.62 580.646C1216.17 571.988 1226.08 565.209 1237.36 560.31C1248.75 555.41 1260.89 552.961 1273.76 552.961C1277.86 552.961 1282.08 553.303 1286.41 553.986C1290.85 554.67 1295.12 555.809 1299.23 557.404C1303.44 558.885 1307.37 560.879 1311.02 563.386C1314.66 565.892 1317.74 568.968 1320.25 572.614V487.165H1367.24V743ZM1320.25 649.86C1320.25 643.48 1318.99 637.328 1316.49 631.403C1314.09 625.365 1310.79 620.067 1306.57 615.51C1302.36 610.839 1297.4 607.136 1291.71 604.401C1286.12 601.553 1280.14 600.129 1273.76 600.129C1267.38 600.129 1261.34 601.268 1255.65 603.547C1250.06 605.826 1245.16 609.13 1240.95 613.459C1236.85 617.674 1233.6 622.858 1231.21 629.011C1228.82 635.163 1227.62 642.113 1227.62 649.86C1227.62 656.582 1228.82 662.963 1231.21 669.001C1233.6 675.039 1236.85 680.337 1240.95 684.895C1245.16 689.452 1250.06 693.041 1255.65 695.661C1261.34 698.282 1267.38 699.592 1273.76 699.592C1280.14 699.592 1286.12 698.225 1291.71 695.49C1297.4 692.642 1302.36 688.939 1306.57 684.382C1310.79 679.711 1314.09 674.413 1316.49 668.488C1318.99 662.45 1320.25 656.241 1320.25 649.86Z" fill="url(#paint3_linear)"/>
<path d="M443.266 247.578C444.016 247.812 444.766 247.977 445.516 248.07C446.266 248.117 447.016 248.141 447.766 248.141C449.641 248.141 451.445 247.883 453.18 247.367C454.914 246.852 456.531 246.125 458.031 245.188C459.578 244.203 460.938 243.031 462.109 241.672C463.328 240.266 464.312 238.719 465.062 237.031L479.125 251.164C477.344 253.695 475.281 255.969 472.938 257.984C470.641 260 468.133 261.711 465.414 263.117C462.742 264.523 459.906 265.578 456.906 266.281C453.953 267.031 450.906 267.406 447.766 267.406C442.469 267.406 437.477 266.422 432.789 264.453C428.148 262.484 424.07 259.742 420.555 256.227C417.086 252.711 414.344 248.539 412.328 243.711C410.312 238.836 409.305 233.492 409.305 227.68C409.305 221.727 410.312 216.289 412.328 211.367C414.344 206.445 417.086 202.25 420.555 198.781C424.07 195.312 428.148 192.617 432.789 190.695C437.477 188.773 442.469 187.812 447.766 187.812C450.906 187.812 453.977 188.188 456.977 188.938C459.977 189.688 462.812 190.766 465.484 192.172C468.203 193.578 470.734 195.312 473.078 197.375C475.422 199.391 477.484 201.664 479.266 204.195L443.266 247.578ZM453.109 207.992C452.219 207.664 451.328 207.453 450.438 207.359C449.594 207.266 448.703 207.219 447.766 207.219C445.141 207.219 442.656 207.711 440.312 208.695C438.016 209.633 436 210.992 434.266 212.773C432.578 214.555 431.242 216.711 430.258 219.242C429.273 221.727 428.781 224.539 428.781 227.68C428.781 228.383 428.805 229.18 428.852 230.07C428.945 230.961 429.062 231.875 429.203 232.812C429.391 233.703 429.602 234.57 429.836 235.414C430.07 236.258 430.375 237.008 430.75 237.664L453.109 207.992ZM554.219 205.672L540.156 219.805C539.453 217.836 538.492 216.078 537.273 214.531C536.055 212.938 534.672 211.602 533.125 210.523C531.625 209.445 529.984 208.625 528.203 208.062C526.422 207.5 524.594 207.219 522.719 207.219C520.094 207.219 517.609 207.758 515.266 208.836C512.969 209.914 510.953 211.438 509.219 213.406C507.531 215.328 506.195 217.625 505.211 220.297C504.227 222.969 503.734 225.922 503.734 229.156C503.734 231.781 504.227 234.242 505.211 236.539C506.195 238.836 507.531 240.852 509.219 242.586C510.953 244.32 512.969 245.68 515.266 246.664C517.609 247.648 520.094 248.141 522.719 248.141C524.594 248.141 526.398 247.883 528.133 247.367C529.867 246.852 531.484 246.125 532.984 245.188C534.531 244.203 535.891 243.031 537.062 241.672C538.281 240.266 539.266 238.719 540.016 237.031L554.078 251.164C552.297 253.695 550.234 255.969 547.891 257.984C545.594 260 543.086 261.711 540.367 263.117C537.695 264.523 534.859 265.578 531.859 266.281C528.906 267.031 525.859 267.406 522.719 267.406C517.422 267.406 512.43 266.422 507.742 264.453C503.102 262.438 499.023 259.695 495.508 256.227C492.039 252.758 489.297 248.703 487.281 244.062C485.266 239.422 484.258 234.453 484.258 229.156C484.258 223.391 485.266 218 487.281 212.984C489.297 207.969 492.039 203.609 495.508 199.906C499.023 196.156 503.102 193.203 507.742 191.047C512.43 188.891 517.422 187.812 522.719 187.812C525.859 187.812 528.93 188.211 531.93 189.008C534.977 189.805 537.859 190.977 540.578 192.523C543.344 194.023 545.875 195.875 548.172 198.078C550.516 200.281 552.531 202.812 554.219 205.672ZM582.836 266H563.641V160.742H582.836V194C585.133 192.266 587.5 191.047 589.938 190.344C592.375 189.594 594.859 189.219 597.391 189.219C602.031 189.219 606.391 190.109 610.469 191.891C614.547 193.625 618.086 196.039 621.086 199.133C624.133 202.18 626.523 205.766 628.258 209.891C630.039 213.969 630.93 218.328 630.93 222.969V266H611.594V222.969H611.734C611.734 221 611.359 219.148 610.609 217.414C609.859 215.633 608.828 214.086 607.516 212.773C606.203 211.461 604.68 210.43 602.945 209.68C601.211 208.93 599.359 208.555 597.391 208.555C595.375 208.555 593.477 208.93 591.695 209.68C589.914 210.43 588.367 211.461 587.055 212.773C585.742 214.086 584.711 215.633 583.961 217.414C583.211 219.148 582.836 221 582.836 222.969V266Z" fill="url(#paint4_linear)"/>
<defs>
<linearGradient id="paint0_linear" x1="238.775" y1="741.252" x2="238.775" y2="163" gradientUnits="userSpaceOnUse">
<stop stop-color="#AF18C8" stop-opacity="0.83"/>
<stop offset="1" stop-color="#4120A9"/>
</linearGradient>
<linearGradient id="paint1_linear" x1="727.473" y1="743.206" x2="727.473" y2="291.787" gradientUnits="userSpaceOnUse">
<stop stop-color="#4120A9"/>
<stop offset="1" stop-color="#AF18C8" stop-opacity="0.83"/>
</linearGradient>
<linearGradient id="paint2_linear" x1="491.793" y1="743.149" x2="491.793" y2="293.867" gradientUnits="userSpaceOnUse">
<stop stop-color="#4120A9"/>
<stop offset="1" stop-color="#AF18C8" stop-opacity="0.83"/>
</linearGradient>
<linearGradient id="paint3_linear" x1="1139.5" y1="398" x2="1139.5" y2="833" gradientUnits="userSpaceOnUse">
<stop stop-color="#AF18C8" stop-opacity="0.83"/>
<stop offset="1" stop-color="#4120A9"/>
</linearGradient>
<linearGradient id="paint4_linear" x1="522" y1="124" x2="522" y2="303" gradientUnits="userSpaceOnUse">
<stop stop-color="#AF18C8" stop-opacity="0.83"/>
<stop offset="1" stop-color="#4120A9"/>
</linearGradient>
</defs>
</svg>
